<svg xmlns="http://www.w3.org/2000/svg" xmlns:xlink="http://www.w3.org/1999/xlink" width="500" zoomAndPan="magnify" viewBox="0 0 375 374.999991" height="500" preserveAspectRatio="xMidYMid meet" version="1.0"><defs><g/><clipPath id="2d83dea6ea"><path d="M 8.898438 120.128906 L 143.644531 120.128906 L 143.644531 254.871094 L 8.898438 254.871094 Z M 8.898438 120.128906 " clip-rule="nonzero"/></clipPath><clipPath id="bea6fc2b3f"><path d="M 76.269531 120.128906 C 39.0625 120.128906 8.898438 150.289062 8.898438 187.5 C 8.898438 224.710938 39.0625 254.871094 76.269531 254.871094 C 113.480469 254.871094 143.644531 224.710938 143.644531 187.5 C 143.644531 150.289062 113.480469 120.128906 76.269531 120.128906 Z M 76.269531 120.128906 " clip-rule="nonzero"/></clipPath></defs><g clip-path="url(#2d83dea6ea)"><g clip-path="url(#bea6fc2b3f)"><path fill="#ffffff" d="M 8.898438 120.128906 L 143.644531 120.128906 L 143.644531 254.871094 L 8.898438 254.871094 Z M 8.898438 120.128906 " fill-opacity="1" fill-rule="nonzero"/></g></g><path fill="#0097b2" d="M 80.519531 122.636719 C 41.339844 120.132812 8.90625 152.566406 11.410156 191.75 C 13.480469 224.132812 39.636719 250.292969 72.023438 252.363281 C 111.203125 254.867188 143.640625 222.433594 141.132812 183.253906 C 139.0625 150.867188 112.902344 124.707031 80.519531 122.636719 Z M 105.703125 219.75 C 108.257812 210.96875 109.785156 200.867188 109.988281 190 L 136.207031 190 C 135.632812 203.933594 130.285156 216.648438 121.757812 226.5625 C 117.84375 223.820312 112.375 221.503906 105.703125 219.75 Z M 30.789062 226.5625 C 22.261719 216.648438 16.910156 203.933594 16.335938 190 L 42.554688 190 C 42.757812 200.867188 44.285156 210.96875 46.84375 219.75 C 40.167969 221.503906 34.699219 223.820312 30.789062 226.5625 Z M 46.828125 155.292969 C 44.277344 164.066406 42.757812 174.152344 42.554688 185 L 16.335938 185 C 16.90625 171.132812 22.210938 158.472656 30.664062 148.578125 C 34.644531 151.273438 40.152344 153.558594 46.828125 155.292969 Z M 73.769531 185 L 47.554688 185 C 47.769531 174.652344 49.308594 164.886719 51.820312 156.441406 C 58.578125 157.804688 66.070312 158.578125 73.769531 158.71875 Z M 73.769531 190 L 73.769531 216.28125 C 66.054688 216.421875 58.5625 217.210938 51.832031 218.589844 C 49.3125 210.132812 47.769531 200.359375 47.554688 190 Z M 78.769531 190 L 104.988281 190 C 104.773438 200.359375 103.230469 210.132812 100.714844 218.589844 C 93.976562 217.210938 86.484375 216.421875 78.769531 216.28125 Z M 78.769531 185 L 78.769531 158.71875 C 86.472656 158.578125 93.964844 157.800781 100.722656 156.441406 C 103.234375 164.886719 104.773438 174.652344 104.988281 185 Z M 78.769531 153.71875 L 78.769531 127.753906 C 86.980469 129.3125 94.328125 138.429688 99.144531 151.664062 C 92.863281 152.886719 85.914062 153.585938 78.769531 153.71875 Z M 73.769531 127.753906 L 73.769531 153.71875 C 66.628906 153.585938 59.679688 152.886719 53.398438 151.664062 C 58.214844 138.429688 65.558594 129.3125 73.769531 127.753906 Z M 73.769531 221.28125 L 73.769531 247.246094 C 65.566406 245.6875 58.222656 236.582031 53.40625 223.363281 C 59.667969 222.121094 66.613281 221.417969 73.769531 221.28125 Z M 78.769531 247.246094 L 78.769531 221.28125 C 85.925781 221.417969 92.871094 222.121094 99.136719 223.363281 C 94.316406 236.582031 86.976562 245.6875 78.769531 247.246094 Z M 109.988281 185 C 109.785156 174.152344 108.265625 164.066406 105.714844 155.292969 C 112.390625 153.558594 117.898438 151.273438 121.878906 148.578125 C 130.332031 158.472656 135.632812 171.132812 136.207031 185 Z M 118.421875 144.851562 C 114.921875 147.066406 110.023438 149.023438 104.1875 150.519531 C 101.050781 141.652344 96.792969 134.433594 91.773438 129.542969 C 101.976562 132.277344 111.117188 137.632812 118.421875 144.851562 Z M 48.355469 150.523438 C 42.519531 149.023438 37.621094 147.070312 34.121094 144.851562 C 41.425781 137.632812 50.566406 132.277344 60.769531 129.542969 C 55.75 134.433594 51.492188 141.652344 48.355469 150.523438 Z M 34.25 230.269531 C 37.671875 228.019531 42.535156 226.039062 48.371094 224.519531 C 51.503906 233.371094 55.757812 240.574219 60.769531 245.457031 C 50.625 242.738281 41.53125 237.425781 34.25 230.269531 Z M 104.171875 224.519531 C 110.007812 226.039062 114.867188 228.019531 118.292969 230.269531 C 111.011719 237.425781 101.921875 242.742188 91.773438 245.457031 C 96.78125 240.574219 101.035156 233.371094 104.171875 224.519531 Z M 104.171875 224.519531 " fill-opacity="1" fill-rule="nonzero"/><g fill="#000000" fill-opacity="1"><g transform="translate(151.541567, 203.249987)"><g><path d="M 16.53125 -15.484375 L 28.515625 -15.484375 L 28.515625 0 L 24.515625 0 L 23.921875 -3.59375 C 21.710938 -0.6875 18.6875 0.765625 14.84375 0.765625 C 11 0.765625 7.859375 -0.601562 5.421875 -3.34375 C 2.984375 -6.09375 1.765625 -9.738281 1.765625 -14.28125 C 1.765625 -18.820312 3.019531 -22.488281 5.53125 -25.28125 C 8.039062 -28.070312 11.460938 -29.46875 15.796875 -29.46875 C 19.515625 -29.46875 22.476562 -28.535156 24.6875 -26.671875 C 26.90625 -24.804688 28.144531 -22.519531 28.40625 -19.8125 L 22.421875 -19.8125 C 22.054688 -21.238281 21.296875 -22.378906 20.140625 -23.234375 C 18.992188 -24.085938 17.648438 -24.515625 16.109375 -24.515625 C 13.546875 -24.515625 11.53125 -23.59375 10.0625 -21.75 C 8.601562 -19.914062 7.875 -17.40625 7.875 -14.21875 C 7.875 -11.039062 8.578125 -8.59375 9.984375 -6.875 C 11.398438 -5.164062 13.484375 -4.3125 16.234375 -4.3125 C 17.785156 -4.3125 19.203125 -4.8125 20.484375 -5.8125 C 21.773438 -6.820312 22.679688 -8.429688 23.203125 -10.640625 L 16.53125 -10.640625 Z M 16.53125 -15.484375 "/></g></g></g><g fill="#000000" fill-opacity="1"><g transform="translate(182.788514, 203.249987)"><g><path d="M 8.34375 0 L 2.734375 0 L 2.734375 -28.71875 L 8.34375 -28.71875 Z M 8.34375 0 "/></g></g></g><g fill="#000000" fill-opacity="1"><g transform="translate(193.861656, 203.249987)"><g><path d="M 17.34375 -10.640625 C 17.34375 -12.671875 16.921875 -14.257812 16.078125 -15.40625 C 15.242188 -16.550781 13.976562 -17.125 12.28125 -17.125 C 10.707031 -17.125 9.472656 -16.585938 8.578125 -15.515625 C 7.679688 -14.441406 7.234375 -12.816406 7.234375 -10.640625 C 7.234375 -8.503906 7.664062 -6.890625 8.53125 -5.796875 C 9.40625 -4.703125 10.65625 -4.15625 12.28125 -4.15625 C 13.96875 -4.15625 15.234375 -4.722656 16.078125 -5.859375 C 16.921875 -6.992188 17.34375 -8.585938 17.34375 -10.640625 Z M 23.109375 -10.640625 C 23.109375 -7.171875 22.109375 -4.4375 20.109375 -2.4375 C 18.109375 -0.4375 15.5 0.5625 12.28125 0.5625 C 9.125 0.5625 6.53125 -0.425781 4.5 -2.40625 C 2.476562 -4.394531 1.46875 -7.140625 1.46875 -10.640625 C 1.46875 -14.171875 2.476562 -16.921875 4.5 -18.890625 C 6.53125 -20.859375 9.125 -21.84375 12.28125 -21.84375 C 15.53125 -21.84375 18.144531 -20.832031 20.125 -18.8125 C 22.113281 -16.800781 23.109375 -14.078125 23.109375 -10.640625 Z M 23.109375 -10.640625 "/></g></g></g><g fill="#000000" fill-opacity="1"><g transform="translate(218.429567, 203.249987)"><g><path d="M 17.65625 -10.484375 C 17.65625 -12.566406 17.234375 -14.171875 16.390625 -15.296875 C 15.554688 -16.429688 14.390625 -17 12.890625 -17 C 11.273438 -17 10.070312 -16.410156 9.28125 -15.234375 C 8.488281 -14.066406 8.09375 -12.375 8.09375 -10.15625 C 8.09375 -8.21875 8.535156 -6.710938 9.421875 -5.640625 C 10.316406 -4.578125 11.523438 -4.046875 13.046875 -4.046875 C 14.398438 -4.046875 15.503906 -4.617188 16.359375 -5.765625 C 17.222656 -6.921875 17.65625 -8.492188 17.65625 -10.484375 Z M 8.34375 -18.515625 L 8.421875 -18.515625 C 9.796875 -20.734375 11.847656 -21.84375 14.578125 -21.84375 C 17.148438 -21.84375 19.265625 -20.859375 20.921875 -18.890625 C 22.585938 -16.929688 23.421875 -14.257812 23.421875 -10.875 C 23.421875 -7.476562 22.628906 -4.722656 21.046875 -2.609375 C 19.472656 -0.492188 17.273438 0.5625 14.453125 0.5625 C 11.648438 0.5625 9.597656 -0.515625 8.296875 -2.671875 L 8.21875 -2.671875 L 8.21875 0 L 2.734375 0 L 2.734375 -28.71875 L 8.34375 -28.71875 Z M 8.34375 -18.515625 "/></g></g></g><g fill="#000000" fill-opacity="1"><g transform="translate(243.309948, 203.249987)"><g><path d="M 14.9375 -10.3125 C 14.25 -9.832031 12.910156 -9.445312 10.921875 -9.15625 C 9.253906 -8.925781 8.160156 -8.550781 7.640625 -8.03125 C 7.128906 -7.519531 6.875 -6.84375 6.875 -6 C 6.875 -5.15625 7.144531 -4.515625 7.6875 -4.078125 C 8.238281 -3.648438 8.894531 -3.4375 9.65625 -3.4375 C 11.082031 -3.4375 12.316406 -3.835938 13.359375 -4.640625 C 14.410156 -5.441406 14.9375 -6.441406 14.9375 -7.640625 Z M 20.40625 -4.15625 C 20.40625 -3.1875 20.492188 -2.421875 20.671875 -1.859375 C 20.859375 -1.304688 21.179688 -0.96875 21.640625 -0.84375 L 21.640625 0 L 15.640625 0 C 15.378906 -0.71875 15.195312 -1.554688 15.09375 -2.515625 C 13.269531 -0.460938 10.898438 0.5625 7.984375 0.5625 C 5.972656 0.5625 4.347656 0.00390625 3.109375 -1.109375 C 1.878906 -2.234375 1.265625 -3.742188 1.265625 -5.640625 C 1.265625 -7.460938 1.800781 -8.96875 2.875 -10.15625 C 3.957031 -11.34375 5.566406 -12.09375 7.703125 -12.40625 L 12.9375 -13.171875 C 13.644531 -13.273438 14.15625 -13.472656 14.46875 -13.765625 C 14.78125 -14.054688 14.9375 -14.429688 14.9375 -14.890625 C 14.9375 -15.703125 14.632812 -16.320312 14.03125 -16.75 C 13.4375 -17.175781 12.523438 -17.390625 11.296875 -17.390625 C 10.003906 -17.390625 9.0625 -17.15625 8.46875 -16.6875 C 7.875 -16.21875 7.503906 -15.453125 7.359375 -14.390625 L 1.953125 -14.390625 C 2.222656 -16.984375 3.101562 -18.875 4.59375 -20.0625 C 6.09375 -21.25 8.472656 -21.84375 11.734375 -21.84375 C 14.367188 -21.84375 16.472656 -21.3125 18.046875 -20.25 C 19.617188 -19.195312 20.40625 -17.675781 20.40625 -15.6875 Z M 20.40625 -4.15625 "/></g></g></g><g fill="#000000" fill-opacity="1"><g transform="translate(266.159278, 203.249987)"><g><path d="M 8.34375 0 L 2.734375 0 L 2.734375 -28.71875 L 8.34375 -28.71875 Z M 8.34375 0 "/></g></g></g><g fill="#000000" fill-opacity="1"><g transform="translate(277.23242, 203.249987)"><g><path d="M 30.78125 0 L 25.171875 0 L 25.171875 -19.390625 L 25.25 -24 L 25.09375 -24 L 19.734375 0 L 13.84375 0 L 8.609375 -24 L 8.484375 -24 L 8.53125 -19.390625 L 8.53125 0 L 2.9375 0 L 2.9375 -28.71875 L 11.703125 -28.71875 L 16.875 -6.078125 L 17 -6.078125 L 22.09375 -28.71875 L 30.78125 -28.71875 Z M 30.78125 0 "/></g></g></g><g fill="#000000" fill-opacity="1"><g transform="translate(310.940063, 203.249987)"><g><path d="M 14.9375 -10.3125 C 14.25 -9.832031 12.910156 -9.445312 10.921875 -9.15625 C 9.253906 -8.925781 8.160156 -8.550781 7.640625 -8.03125 C 7.128906 -7.519531 6.875 -6.84375 6.875 -6 C 6.875 -5.15625 7.144531 -4.515625 7.6875 -4.078125 C 8.238281 -3.648438 8.894531 -3.4375 9.65625 -3.4375 C 11.082031 -3.4375 12.316406 -3.835938 13.359375 -4.640625 C 14.410156 -5.441406 14.9375 -6.441406 14.9375 -7.640625 Z M 20.40625 -4.15625 C 20.40625 -3.1875 20.492188 -2.421875 20.671875 -1.859375 C 20.859375 -1.304688 21.179688 -0.96875 21.640625 -0.84375 L 21.640625 0 L 15.640625 0 C 15.378906 -0.71875 15.195312 -1.554688 15.09375 -2.515625 C 13.269531 -0.460938 10.898438 0.5625 7.984375 0.5625 C 5.972656 0.5625 4.347656 0.00390625 3.109375 -1.109375 C 1.878906 -2.234375 1.265625 -3.742188 1.265625 -5.640625 C 1.265625 -7.460938 1.800781 -8.96875 2.875 -10.15625 C 3.957031 -11.34375 5.566406 -12.09375 7.703125 -12.40625 L 12.9375 -13.171875 C 13.644531 -13.273438 14.15625 -13.472656 14.46875 -13.765625 C 14.78125 -14.054688 14.9375 -14.429688 14.9375 -14.890625 C 14.9375 -15.703125 14.632812 -16.320312 14.03125 -16.75 C 13.4375 -17.175781 12.523438 -17.390625 11.296875 -17.390625 C 10.003906 -17.390625 9.0625 -17.15625 8.46875 -16.6875 C 7.875 -16.21875 7.503906 -15.453125 7.359375 -14.390625 L 1.953125 -14.390625 C 2.222656 -16.984375 3.101562 -18.875 4.59375 -20.0625 C 6.09375 -21.25 8.472656 -21.84375 11.734375 -21.84375 C 14.367188 -21.84375 16.472656 -21.3125 18.046875 -20.25 C 19.617188 -19.195312 20.40625 -17.675781 20.40625 -15.6875 Z M 20.40625 -4.15625 "/></g></g></g><g fill="#000000" fill-opacity="1"><g transform="translate(333.789393, 203.249987)"><g><path d="M 8.34375 -23.8125 L 2.734375 -23.8125 L 2.734375 -29 L 8.34375 -29 Z M 8.34375 -21.296875 L 8.34375 0 L 2.734375 0 L 2.734375 -21.296875 Z M 8.34375 -21.296875 "/></g></g></g><g fill="#000000" fill-opacity="1"><g transform="translate(344.862524, 203.249987)"><g><path d="M 8.34375 0 L 2.734375 0 L 2.734375 -28.71875 L 8.34375 -28.71875 Z M 8.34375 0 "/></g></g></g></svg>